<?xml version="1.0" encoding="UTF-8" standalone="no"?>
<svg
   xmlns:dc="http://purl.org/dc/elements/1.1/"
   xmlns:cc="http://creativecommons.org/ns#"
   xmlns:rdf="http://www.w3.org/1999/02/22-rdf-syntax-ns#"
   xmlns:svg="http://www.w3.org/2000/svg"
   xmlns="http://www.w3.org/2000/svg"
   xmlns:sodipodi="http://sodipodi.sourceforge.net/DTD/sodipodi-0.dtd"
   xmlns:inkscape="http://www.inkscape.org/namespaces/inkscape"
   version="1.1"
   id="Layer_1"
   x="0px"
   y="0px"
   viewBox="0 0 335.92002 73.080002"
   xml:space="preserve"
   sodipodi:docname="event-model-logo.svg"
   width="335.92001"
   height="73.080002"
   inkscape:version="1.0.2 (e86c870879, 2021-01-15)"><metadata
   id="metadata113"><rdf:RDF><cc:Work
       rdf:about=""><dc:format>image/svg+xml</dc:format><dc:type
         rdf:resource="http://purl.org/dc/dcmitype/StillImage" /><dc:title></dc:title></cc:Work></rdf:RDF></metadata><defs
   id="defs111" /><sodipodi:namedview
   pagecolor="#ffffff"
   bordercolor="#666666"
   borderopacity="1"
   objecttolerance="10"
   gridtolerance="10"
   guidetolerance="10"
   inkscape:pageopacity="0"
   inkscape:pageshadow="2"
   inkscape:window-width="2311"
   inkscape:window-height="951"
   id="namedview109"
   showgrid="false"
   fit-margin-top="0"
   fit-margin-left="0"
   fit-margin-right="0"
   fit-margin-bottom="0"
   inkscape:zoom="4"
   inkscape:cx="179.82228"
   inkscape:cy="56.474673"
   inkscape:window-x="858"
   inkscape:window-y="280"
   inkscape:window-maximized="0"
   inkscape:current-layer="Layer_1"
   inkscape:document-rotation="0" />
<style
   type="text/css"
   id="style2">
	.st0{fill:url(#SVGID_1_);}
	.st1{fill:url(#SVGID_2_);}
	.st2{fill:url(#SVGID_3_);}
	.st3{fill:url(#SVGID_4_);}
	.st4{fill:url(#SVGID_5_);}
	.st5{fill:url(#SVGID_6_);}
	.st6{fill:url(#SVGID_7_);}
	.st7{fill:url(#SVGID_8_);}
	.st8{fill:#29A07C;}
	.st9{fill:url(#SVGID_9_);}
	.st10{fill:url(#SVGID_10_);}
	.st11{fill:#33BBED;}
	.st12{fill:url(#SVGID_11_);}
	.st13{fill:url(#SVGID_12_);}
	.st14{fill:url(#SVGID_13_);}
	.st15{fill:url(#SVGID_14_);}
	.st16{fill:url(#SVGID_15_);}
	.st17{fill:url(#SVGID_16_);}
	.st18{fill:url(#SVGID_17_);}
	.st19{fill:url(#SVGID_18_);}
</style>
<g
   id="g106"
   transform="matrix(2,0,0,2,-82.34,-53.46)"
   style="stroke-width:0.5">
	<g
   id="g71"
   style="stroke-width:0.5">
		<g
   id="g18"
   style="stroke-width:0.5">
			<path
   class="st11"
   d="m 84.15,51.65 c 0,-0.23 0.07,-0.41 0.21,-0.52 0.14,-0.11 0.33,-0.17 0.58,-0.17 0.16,0 0.3,0.02 0.43,0.06 0.13,0.04 0.22,0.07 0.26,0.08 v 3.73 c 0.22,-0.28 0.52,-0.51 0.9,-0.71 0.38,-0.2 0.82,-0.29 1.31,-0.29 0.48,0 0.92,0.08 1.32,0.25 0.4,0.17 0.75,0.41 1.05,0.71 0.3,0.31 0.53,0.67 0.7,1.09 0.17,0.42 0.25,0.88 0.25,1.38 0,0.49 -0.09,0.95 -0.26,1.38 -0.17,0.42 -0.42,0.79 -0.73,1.09 -0.31,0.3 -0.68,0.54 -1.11,0.71 -0.43,0.17 -0.9,0.26 -1.41,0.26 -0.51,0 -0.98,-0.08 -1.41,-0.23 -0.43,-0.16 -0.8,-0.39 -1.11,-0.7 -0.31,-0.31 -0.55,-0.7 -0.73,-1.17 -0.17,-0.47 -0.26,-1.02 -0.26,-1.65 v -5.3 z m 3.48,7.73 c 0.29,0 0.57,-0.05 0.81,-0.16 0.24,-0.11 0.46,-0.26 0.64,-0.44 0.18,-0.19 0.31,-0.41 0.41,-0.66 0.09,-0.26 0.14,-0.53 0.14,-0.84 0,-0.3 -0.05,-0.58 -0.14,-0.84 -0.1,-0.26 -0.23,-0.48 -0.41,-0.67 -0.18,-0.19 -0.39,-0.33 -0.64,-0.44 -0.25,-0.11 -0.52,-0.16 -0.81,-0.16 -0.3,0 -0.58,0.05 -0.83,0.16 -0.25,0.11 -0.46,0.26 -0.63,0.45 -0.17,0.19 -0.31,0.42 -0.41,0.68 -0.1,0.26 -0.15,0.54 -0.15,0.83 0,0.31 0.05,0.6 0.15,0.86 0.1,0.26 0.24,0.48 0.42,0.66 0.18,0.18 0.39,0.32 0.64,0.43 0.25,0.09 0.52,0.14 0.81,0.14 z"
   id="path4"
   style="stroke-width:0.5" />
			<path
   class="st11"
   d="m 93.31,51.65 c 0,-0.23 0.07,-0.41 0.21,-0.52 0.14,-0.11 0.33,-0.17 0.58,-0.17 0.16,0 0.3,0.02 0.43,0.06 0.13,0.04 0.22,0.07 0.26,0.08 v 9.44 h -1.48 z"
   id="path6"
   style="stroke-width:0.5" />
			<path
   class="st11"
   d="m 97.2,54.71 c 0,-0.24 0.07,-0.42 0.21,-0.53 0.14,-0.11 0.33,-0.16 0.58,-0.16 0.16,0 0.3,0.02 0.43,0.06 0.13,0.04 0.22,0.07 0.26,0.08 v 3.42 c 0,0.59 0.14,1.04 0.42,1.35 0.28,0.31 0.7,0.46 1.27,0.46 0.57,0 1,-0.15 1.27,-0.46 0.27,-0.31 0.42,-0.76 0.42,-1.35 v -2.87 c 0,-0.24 0.07,-0.42 0.21,-0.53 0.14,-0.11 0.33,-0.16 0.57,-0.16 0.16,0 0.31,0.02 0.44,0.06 0.13,0.04 0.22,0.07 0.26,0.08 v 3.74 c 0,0.44 -0.08,0.84 -0.23,1.19 -0.15,0.35 -0.37,0.65 -0.65,0.89 -0.28,0.24 -0.62,0.43 -1.01,0.55 -0.39,0.13 -0.82,0.19 -1.29,0.19 -0.47,0 -0.9,-0.06 -1.29,-0.19 -0.39,-0.13 -0.72,-0.31 -1,-0.55 -0.28,-0.24 -0.49,-0.54 -0.65,-0.89 -0.16,-0.35 -0.23,-0.75 -0.23,-1.19 v -3.19 z"
   id="path8"
   style="stroke-width:0.5" />
			<path
   class="st11"
   d="m 111.69,60.06 c -0.07,0.04 -0.18,0.1 -0.33,0.18 -0.15,0.08 -0.33,0.15 -0.55,0.22 -0.22,0.07 -0.48,0.13 -0.77,0.18 -0.29,0.05 -0.61,0.08 -0.96,0.08 -0.49,0 -0.94,-0.07 -1.36,-0.22 -0.42,-0.15 -0.79,-0.37 -1.11,-0.66 -0.32,-0.29 -0.57,-0.65 -0.75,-1.07 -0.18,-0.42 -0.27,-0.9 -0.27,-1.45 0,-0.52 0.09,-0.99 0.27,-1.42 0.18,-0.43 0.42,-0.8 0.74,-1.1 0.32,-0.3 0.69,-0.55 1.12,-0.71 0.43,-0.17 0.9,-0.25 1.41,-0.25 0.45,0 0.85,0.06 1.2,0.18 0.35,0.12 0.64,0.27 0.88,0.47 0.24,0.2 0.42,0.42 0.54,0.68 0.12,0.26 0.18,0.54 0.18,0.83 0,0.3 -0.06,0.58 -0.17,0.83 -0.11,0.25 -0.31,0.46 -0.6,0.64 -0.29,0.18 -0.67,0.32 -1.16,0.42 -0.49,0.1 -1.1,0.15 -1.85,0.15 -0.17,0 -0.34,0 -0.49,-0.01 -0.15,0 -0.31,-0.01 -0.49,-0.02 0.07,0.44 0.28,0.8 0.64,1.07 0.36,0.27 0.87,0.41 1.54,0.41 0.23,0 0.43,-0.02 0.62,-0.05 0.19,-0.03 0.36,-0.08 0.51,-0.13 0.15,-0.05 0.28,-0.1 0.39,-0.16 0.11,-0.05 0.19,-0.09 0.24,-0.12 z m -4.57,-3.08 c 0.2,0.01 0.39,0.01 0.57,0.01 0.18,0 0.36,0 0.55,0 0.48,0 0.86,-0.03 1.16,-0.09 0.29,-0.06 0.52,-0.14 0.69,-0.23 0.16,-0.1 0.27,-0.2 0.32,-0.33 0.05,-0.12 0.08,-0.25 0.08,-0.38 0,-0.33 -0.13,-0.58 -0.4,-0.74 -0.27,-0.16 -0.59,-0.25 -0.98,-0.25 -0.32,0 -0.6,0.06 -0.84,0.17 -0.24,0.11 -0.45,0.26 -0.61,0.45 -0.17,0.19 -0.29,0.4 -0.38,0.64 -0.09,0.24 -0.15,0.5 -0.16,0.75 z"
   id="path10"
   style="stroke-width:0.5" />
			<path
   class="st11"
   d="m 114.09,58.92 c 0.06,0.04 0.17,0.1 0.33,0.17 0.16,0.07 0.35,0.14 0.58,0.21 0.23,0.07 0.49,0.14 0.79,0.19 0.29,0.05 0.62,0.08 0.96,0.08 0.45,0 0.82,-0.06 1.11,-0.18 0.29,-0.12 0.43,-0.32 0.43,-0.6 0,-0.24 -0.09,-0.43 -0.27,-0.55 -0.18,-0.13 -0.51,-0.21 -0.97,-0.27 l -1.01,-0.12 c -0.35,-0.03 -0.67,-0.1 -0.96,-0.19 -0.29,-0.09 -0.54,-0.21 -0.75,-0.37 -0.21,-0.16 -0.37,-0.35 -0.49,-0.58 -0.12,-0.23 -0.18,-0.5 -0.18,-0.83 0,-0.28 0.05,-0.54 0.16,-0.79 0.11,-0.25 0.28,-0.47 0.51,-0.66 0.23,-0.19 0.54,-0.34 0.92,-0.45 0.38,-0.11 0.83,-0.16 1.37,-0.16 0.9,0 1.6,0.1 2.1,0.3 0.5,0.2 0.75,0.46 0.75,0.78 0,0.1 -0.02,0.2 -0.06,0.27 -0.04,0.08 -0.08,0.15 -0.13,0.21 -0.05,0.06 -0.1,0.11 -0.15,0.15 -0.05,0.04 -0.09,0.06 -0.12,0.07 -0.03,-0.03 -0.11,-0.09 -0.23,-0.16 -0.12,-0.07 -0.27,-0.15 -0.47,-0.22 -0.2,-0.07 -0.44,-0.14 -0.71,-0.19 -0.28,-0.06 -0.6,-0.08 -0.96,-0.08 -1.01,0 -1.51,0.26 -1.51,0.79 0,0.23 0.09,0.4 0.29,0.51 0.19,0.12 0.46,0.2 0.82,0.24 l 1.33,0.17 c 0.72,0.1 1.28,0.29 1.68,0.59 0.4,0.3 0.6,0.74 0.6,1.32 0,0.65 -0.26,1.17 -0.77,1.56 -0.52,0.39 -1.26,0.58 -2.23,0.58 -0.47,0 -0.89,-0.03 -1.27,-0.1 -0.38,-0.07 -0.71,-0.15 -0.99,-0.24 -0.28,-0.09 -0.51,-0.18 -0.68,-0.27 -0.17,-0.09 -0.29,-0.15 -0.34,-0.2 z"
   id="path12"
   style="stroke-width:0.5" />
			<path
   class="st11"
   d="m 121.9,51.65 c 0,-0.23 0.07,-0.41 0.21,-0.52 0.14,-0.11 0.33,-0.17 0.58,-0.17 0.16,0 0.3,0.02 0.43,0.06 0.13,0.04 0.22,0.07 0.26,0.08 v 5.31 c 0.11,-0.08 0.27,-0.19 0.47,-0.34 0.2,-0.15 0.43,-0.32 0.68,-0.5 0.25,-0.18 0.51,-0.37 0.78,-0.57 0.27,-0.2 0.52,-0.38 0.77,-0.56 0.19,-0.14 0.36,-0.24 0.52,-0.32 0.16,-0.07 0.36,-0.11 0.61,-0.11 0.23,0 0.43,0.06 0.6,0.19 0.17,0.13 0.27,0.23 0.31,0.32 -0.18,0.16 -0.43,0.36 -0.75,0.6 -0.32,0.24 -0.64,0.48 -0.97,0.71 -0.33,0.24 -0.64,0.46 -0.94,0.66 -0.29,0.2 -0.51,0.35 -0.64,0.45 0.74,0.55 1.41,1.14 2.01,1.78 0.6,0.64 1.12,1.24 1.53,1.82 h -1.85 c -0.2,-0.24 -0.42,-0.5 -0.67,-0.76 -0.25,-0.26 -0.51,-0.53 -0.79,-0.78 -0.28,-0.26 -0.57,-0.5 -0.86,-0.74 -0.29,-0.24 -0.57,-0.46 -0.84,-0.66 v 2.94 h -1.48 v -8.89 z"
   id="path14"
   style="stroke-width:0.5" />
			<path
   class="st11"
   d="m 129.9,54.71 c 0,-0.23 0.07,-0.41 0.21,-0.52 0.14,-0.11 0.33,-0.17 0.57,-0.17 0.16,0 0.3,0.02 0.44,0.06 0.13,0.04 0.22,0.07 0.27,0.08 v 3.47 c 0,0.51 0.14,0.92 0.41,1.22 0.27,0.3 0.7,0.46 1.27,0.46 0.53,0 0.95,-0.15 1.25,-0.46 0.3,-0.31 0.46,-0.76 0.46,-1.36 v -2.78 c 0,-0.23 0.07,-0.41 0.21,-0.52 0.14,-0.11 0.33,-0.17 0.57,-0.17 0.16,0 0.3,0.02 0.44,0.06 0.13,0.04 0.22,0.07 0.27,0.08 v 5.69 c 0,0.62 -0.08,1.14 -0.25,1.57 -0.17,0.43 -0.4,0.78 -0.7,1.06 -0.3,0.28 -0.67,0.48 -1.09,0.6 -0.42,0.13 -0.9,0.19 -1.42,0.19 -0.36,0 -0.68,-0.02 -0.97,-0.06 -0.29,-0.04 -0.56,-0.08 -0.79,-0.14 -0.23,-0.05 -0.42,-0.1 -0.57,-0.15 -0.15,-0.05 -0.25,-0.08 -0.31,-0.11 0.07,-0.18 0.13,-0.37 0.2,-0.55 0.06,-0.19 0.12,-0.37 0.18,-0.55 0.06,0.03 0.16,0.06 0.29,0.1 0.13,0.04 0.29,0.08 0.47,0.12 0.18,0.04 0.39,0.07 0.62,0.1 0.23,0.03 0.47,0.04 0.73,0.04 0.34,0 0.64,-0.04 0.91,-0.11 0.27,-0.07 0.5,-0.2 0.68,-0.38 0.19,-0.18 0.33,-0.42 0.43,-0.72 0.1,-0.3 0.15,-0.67 0.15,-1.12 -0.17,0.25 -0.44,0.45 -0.81,0.6 -0.37,0.15 -0.77,0.23 -1.21,0.23 -0.42,0 -0.8,-0.06 -1.16,-0.18 -0.36,-0.12 -0.66,-0.29 -0.91,-0.51 -0.25,-0.22 -0.45,-0.5 -0.59,-0.83 -0.14,-0.33 -0.21,-0.71 -0.21,-1.13 v -3.21 z"
   id="path16"
   style="stroke-width:0.5" />
		</g>
		<g
   id="g69"
   style="stroke-width:0.5">
			<linearGradient
   id="SVGID_1_"
   gradientUnits="userSpaceOnUse"
   x1="110.1963"
   y1="63.271"
   x2="110.1963"
   y2="50.961399">
				<stop
   offset="0"
   style="stop-color:#33BBED"
   id="stop20" />
				<stop
   offset="0.9982"
   style="stop-color:#3777BC"
   id="stop22" />
			</linearGradient>
			<path
   class="st0"
   d="m 84.15,51.65 c 0,-0.23 0.07,-0.41 0.21,-0.52 0.14,-0.11 0.33,-0.17 0.58,-0.17 0.16,0 0.3,0.02 0.43,0.06 0.13,0.04 0.22,0.07 0.26,0.08 v 3.73 c 0.22,-0.28 0.52,-0.51 0.9,-0.71 0.38,-0.2 0.82,-0.29 1.31,-0.29 0.48,0 0.92,0.08 1.32,0.25 0.4,0.17 0.75,0.41 1.05,0.71 0.3,0.31 0.53,0.67 0.7,1.09 0.17,0.42 0.25,0.88 0.25,1.38 0,0.49 -0.09,0.95 -0.26,1.38 -0.17,0.42 -0.42,0.79 -0.73,1.09 -0.31,0.3 -0.68,0.54 -1.11,0.71 -0.43,0.17 -0.9,0.26 -1.41,0.26 -0.51,0 -0.98,-0.08 -1.41,-0.23 -0.43,-0.16 -0.8,-0.39 -1.11,-0.7 -0.31,-0.31 -0.55,-0.7 -0.73,-1.17 -0.17,-0.47 -0.26,-1.02 -0.26,-1.65 v -5.3 z m 3.48,7.73 c 0.29,0 0.57,-0.05 0.81,-0.16 0.24,-0.11 0.46,-0.26 0.64,-0.44 0.18,-0.19 0.31,-0.41 0.41,-0.66 0.09,-0.26 0.14,-0.53 0.14,-0.84 0,-0.3 -0.05,-0.58 -0.14,-0.84 -0.1,-0.26 -0.23,-0.48 -0.41,-0.67 -0.18,-0.19 -0.39,-0.33 -0.64,-0.44 -0.25,-0.11 -0.52,-0.16 -0.81,-0.16 -0.3,0 -0.58,0.05 -0.83,0.16 -0.25,0.11 -0.46,0.26 -0.63,0.45 -0.17,0.19 -0.31,0.42 -0.41,0.68 -0.1,0.26 -0.15,0.54 -0.15,0.83 0,0.31 0.05,0.6 0.15,0.86 0.1,0.26 0.24,0.48 0.42,0.66 0.18,0.18 0.39,0.32 0.64,0.43 0.25,0.09 0.52,0.14 0.81,0.14 z"
   id="path25"
   style="fill:url(#SVGID_1_);stroke-width:0.5" />
			<linearGradient
   id="SVGID_2_"
   gradientUnits="userSpaceOnUse"
   x1="110.1963"
   y1="63.271"
   x2="110.1963"
   y2="50.961399">
				<stop
   offset="0"
   style="stop-color:#33BBED"
   id="stop27" />
				<stop
   offset="0.9982"
   style="stop-color:#3777BC"
   id="stop29" />
			</linearGradient>
			<path
   class="st1"
   d="m 93.31,51.65 c 0,-0.23 0.07,-0.41 0.21,-0.52 0.14,-0.11 0.33,-0.17 0.58,-0.17 0.16,0 0.3,0.02 0.43,0.06 0.13,0.04 0.22,0.07 0.26,0.08 v 9.44 h -1.48 z"
   id="path32"
   style="fill:url(#SVGID_2_);stroke-width:0.5" />
			<linearGradient
   id="SVGID_3_"
   gradientUnits="userSpaceOnUse"
   x1="110.1963"
   y1="63.271"
   x2="110.1963"
   y2="50.961399">
				<stop
   offset="0"
   style="stop-color:#33BBED"
   id="stop34" />
				<stop
   offset="0.9982"
   style="stop-color:#3777BC"
   id="stop36" />
			</linearGradient>
			<path
   class="st2"
   d="m 97.2,54.71 c 0,-0.24 0.07,-0.42 0.21,-0.53 0.14,-0.11 0.33,-0.16 0.58,-0.16 0.16,0 0.3,0.02 0.43,0.06 0.13,0.04 0.22,0.07 0.26,0.08 v 3.42 c 0,0.59 0.14,1.04 0.42,1.35 0.28,0.31 0.7,0.46 1.27,0.46 0.57,0 1,-0.15 1.27,-0.46 0.27,-0.31 0.42,-0.76 0.42,-1.35 v -2.87 c 0,-0.24 0.07,-0.42 0.21,-0.53 0.14,-0.11 0.33,-0.16 0.57,-0.16 0.16,0 0.31,0.02 0.44,0.06 0.13,0.04 0.22,0.07 0.26,0.08 v 3.74 c 0,0.44 -0.08,0.84 -0.23,1.19 -0.15,0.35 -0.37,0.65 -0.65,0.89 -0.28,0.24 -0.62,0.43 -1.01,0.55 -0.39,0.13 -0.82,0.19 -1.29,0.19 -0.47,0 -0.9,-0.06 -1.29,-0.19 -0.39,-0.13 -0.72,-0.31 -1,-0.55 -0.28,-0.24 -0.49,-0.54 -0.65,-0.89 -0.16,-0.35 -0.23,-0.75 -0.23,-1.19 v -3.19 z"
   id="path39"
   style="fill:url(#SVGID_3_);stroke-width:0.5" />
			<linearGradient
   id="SVGID_4_"
   gradientUnits="userSpaceOnUse"
   x1="110.1963"
   y1="63.271"
   x2="110.1963"
   y2="50.961399">
				<stop
   offset="0"
   style="stop-color:#33BBED"
   id="stop41" />
				<stop
   offset="0.9982"
   style="stop-color:#3777BC"
   id="stop43" />
			</linearGradient>
			<path
   class="st3"
   d="m 111.69,60.06 c -0.07,0.04 -0.18,0.1 -0.33,0.18 -0.15,0.08 -0.33,0.15 -0.55,0.22 -0.22,0.07 -0.48,0.13 -0.77,0.18 -0.29,0.05 -0.61,0.08 -0.96,0.08 -0.49,0 -0.94,-0.07 -1.36,-0.22 -0.42,-0.15 -0.79,-0.37 -1.11,-0.66 -0.32,-0.29 -0.57,-0.65 -0.75,-1.07 -0.18,-0.42 -0.27,-0.9 -0.27,-1.45 0,-0.52 0.09,-0.99 0.27,-1.42 0.18,-0.43 0.42,-0.8 0.74,-1.1 0.32,-0.3 0.69,-0.55 1.12,-0.71 0.43,-0.17 0.9,-0.25 1.41,-0.25 0.45,0 0.85,0.06 1.2,0.18 0.35,0.12 0.64,0.27 0.88,0.47 0.24,0.2 0.42,0.42 0.54,0.68 0.12,0.26 0.18,0.54 0.18,0.83 0,0.3 -0.06,0.58 -0.17,0.83 -0.11,0.25 -0.31,0.46 -0.6,0.64 -0.29,0.18 -0.67,0.32 -1.16,0.42 -0.49,0.1 -1.1,0.15 -1.85,0.15 -0.17,0 -0.34,0 -0.49,-0.01 -0.15,0 -0.31,-0.01 -0.49,-0.02 0.07,0.44 0.28,0.8 0.64,1.07 0.36,0.27 0.87,0.41 1.54,0.41 0.23,0 0.43,-0.02 0.62,-0.05 0.19,-0.03 0.36,-0.08 0.51,-0.13 0.15,-0.05 0.28,-0.1 0.39,-0.16 0.11,-0.05 0.19,-0.09 0.24,-0.12 z m -4.57,-3.08 c 0.2,0.01 0.39,0.01 0.57,0.01 0.18,0 0.36,0 0.55,0 0.48,0 0.86,-0.03 1.16,-0.09 0.29,-0.06 0.52,-0.14 0.69,-0.23 0.16,-0.1 0.27,-0.2 0.32,-0.33 0.05,-0.12 0.08,-0.25 0.08,-0.38 0,-0.33 -0.13,-0.58 -0.4,-0.74 -0.27,-0.16 -0.59,-0.25 -0.98,-0.25 -0.32,0 -0.6,0.06 -0.84,0.17 -0.24,0.11 -0.45,0.26 -0.61,0.45 -0.17,0.19 -0.29,0.4 -0.38,0.64 -0.09,0.24 -0.15,0.5 -0.16,0.75 z"
   id="path46"
   style="fill:url(#SVGID_4_);stroke-width:0.5" />
			<linearGradient
   id="SVGID_5_"
   gradientUnits="userSpaceOnUse"
   x1="110.1963"
   y1="63.271"
   x2="110.1963"
   y2="50.961399">
				<stop
   offset="0"
   style="stop-color:#33BBED"
   id="stop48" />
				<stop
   offset="0.9982"
   style="stop-color:#3777BC"
   id="stop50" />
			</linearGradient>
			<path
   class="st4"
   d="m 114.09,58.92 c 0.06,0.04 0.17,0.1 0.33,0.17 0.16,0.07 0.35,0.14 0.58,0.21 0.23,0.07 0.49,0.14 0.79,0.19 0.29,0.05 0.62,0.08 0.96,0.08 0.45,0 0.82,-0.06 1.11,-0.18 0.29,-0.12 0.43,-0.32 0.43,-0.6 0,-0.24 -0.09,-0.43 -0.27,-0.55 -0.18,-0.13 -0.51,-0.21 -0.97,-0.27 l -1.01,-0.12 c -0.35,-0.03 -0.67,-0.1 -0.96,-0.19 -0.29,-0.09 -0.54,-0.21 -0.75,-0.37 -0.21,-0.16 -0.37,-0.35 -0.49,-0.58 -0.12,-0.23 -0.18,-0.5 -0.18,-0.83 0,-0.28 0.05,-0.54 0.16,-0.79 0.11,-0.25 0.28,-0.47 0.51,-0.66 0.23,-0.19 0.54,-0.34 0.92,-0.45 0.38,-0.11 0.83,-0.16 1.37,-0.16 0.9,0 1.6,0.1 2.1,0.3 0.5,0.2 0.75,0.46 0.75,0.78 0,0.1 -0.02,0.2 -0.06,0.27 -0.04,0.08 -0.08,0.15 -0.13,0.21 -0.05,0.06 -0.1,0.11 -0.15,0.15 -0.05,0.04 -0.09,0.06 -0.12,0.07 -0.03,-0.03 -0.11,-0.09 -0.23,-0.16 -0.12,-0.07 -0.27,-0.15 -0.47,-0.22 -0.2,-0.07 -0.44,-0.14 -0.71,-0.19 -0.28,-0.06 -0.6,-0.08 -0.96,-0.08 -1.01,0 -1.51,0.26 -1.51,0.79 0,0.23 0.09,0.4 0.29,0.51 0.19,0.12 0.46,0.2 0.82,0.24 l 1.33,0.17 c 0.72,0.1 1.28,0.29 1.68,0.59 0.4,0.3 0.6,0.74 0.6,1.32 0,0.65 -0.26,1.17 -0.77,1.56 -0.52,0.39 -1.26,0.58 -2.23,0.58 -0.47,0 -0.89,-0.03 -1.27,-0.1 -0.38,-0.07 -0.71,-0.15 -0.99,-0.24 -0.28,-0.09 -0.51,-0.18 -0.68,-0.27 -0.17,-0.09 -0.29,-0.15 -0.34,-0.2 z"
   id="path53"
   style="fill:url(#SVGID_5_);stroke-width:0.5" />
			<linearGradient
   id="SVGID_6_"
   gradientUnits="userSpaceOnUse"
   x1="110.1963"
   y1="63.271"
   x2="110.1963"
   y2="50.961399">
				<stop
   offset="0"
   style="stop-color:#33BBED"
   id="stop55" />
				<stop
   offset="0.9982"
   style="stop-color:#3777BC"
   id="stop57" />
			</linearGradient>
			<path
   class="st5"
   d="m 121.9,51.65 c 0,-0.23 0.07,-0.41 0.21,-0.52 0.14,-0.11 0.33,-0.17 0.58,-0.17 0.16,0 0.3,0.02 0.43,0.06 0.13,0.04 0.22,0.07 0.26,0.08 v 5.31 c 0.11,-0.08 0.27,-0.19 0.47,-0.34 0.2,-0.15 0.43,-0.32 0.68,-0.5 0.25,-0.18 0.51,-0.37 0.78,-0.57 0.27,-0.2 0.52,-0.38 0.77,-0.56 0.19,-0.14 0.36,-0.24 0.52,-0.32 0.16,-0.07 0.36,-0.11 0.61,-0.11 0.23,0 0.43,0.06 0.6,0.19 0.17,0.13 0.27,0.23 0.31,0.32 -0.18,0.16 -0.43,0.36 -0.75,0.6 -0.32,0.24 -0.64,0.48 -0.97,0.71 -0.33,0.24 -0.64,0.46 -0.94,0.66 -0.29,0.2 -0.51,0.35 -0.64,0.45 0.74,0.55 1.41,1.14 2.01,1.78 0.6,0.64 1.12,1.24 1.53,1.82 h -1.85 c -0.2,-0.24 -0.42,-0.5 -0.67,-0.76 -0.25,-0.26 -0.51,-0.53 -0.79,-0.78 -0.28,-0.26 -0.57,-0.5 -0.86,-0.74 -0.29,-0.24 -0.57,-0.46 -0.84,-0.66 v 2.94 h -1.48 v -8.89 z"
   id="path60"
   style="fill:url(#SVGID_6_);stroke-width:0.5" />
			<linearGradient
   id="SVGID_7_"
   gradientUnits="userSpaceOnUse"
   x1="110.1963"
   y1="63.271"
   x2="110.1963"
   y2="50.961399">
				<stop
   offset="0"
   style="stop-color:#33BBED"
   id="stop62" />
				<stop
   offset="0.9982"
   style="stop-color:#3777BC"
   id="stop64" />
			</linearGradient>
			<path
   class="st6"
   d="m 129.9,54.71 c 0,-0.23 0.07,-0.41 0.21,-0.52 0.14,-0.11 0.33,-0.17 0.57,-0.17 0.16,0 0.3,0.02 0.44,0.06 0.13,0.04 0.22,0.07 0.27,0.08 v 3.47 c 0,0.51 0.14,0.92 0.41,1.22 0.27,0.3 0.7,0.46 1.27,0.46 0.53,0 0.95,-0.15 1.25,-0.46 0.3,-0.31 0.46,-0.76 0.46,-1.36 v -2.78 c 0,-0.23 0.07,-0.41 0.21,-0.52 0.14,-0.11 0.33,-0.17 0.57,-0.17 0.16,0 0.3,0.02 0.44,0.06 0.13,0.04 0.22,0.07 0.27,0.08 v 5.69 c 0,0.62 -0.08,1.14 -0.25,1.57 -0.17,0.43 -0.4,0.78 -0.7,1.06 -0.3,0.28 -0.67,0.48 -1.09,0.6 -0.42,0.13 -0.9,0.19 -1.42,0.19 -0.36,0 -0.68,-0.02 -0.97,-0.06 -0.29,-0.04 -0.56,-0.08 -0.79,-0.14 -0.23,-0.05 -0.42,-0.1 -0.57,-0.15 -0.15,-0.05 -0.25,-0.08 -0.31,-0.11 0.07,-0.18 0.13,-0.37 0.2,-0.55 0.06,-0.19 0.12,-0.37 0.18,-0.55 0.06,0.03 0.16,0.06 0.29,0.1 0.13,0.04 0.29,0.08 0.47,0.12 0.18,0.04 0.39,0.07 0.62,0.1 0.23,0.03 0.47,0.04 0.73,0.04 0.34,0 0.64,-0.04 0.91,-0.11 0.27,-0.07 0.5,-0.2 0.68,-0.38 0.19,-0.18 0.33,-0.42 0.43,-0.72 0.1,-0.3 0.15,-0.67 0.15,-1.12 -0.17,0.25 -0.44,0.45 -0.81,0.6 -0.37,0.15 -0.77,0.23 -1.21,0.23 -0.42,0 -0.8,-0.06 -1.16,-0.18 -0.36,-0.12 -0.66,-0.29 -0.91,-0.51 -0.25,-0.22 -0.45,-0.5 -0.59,-0.83 -0.14,-0.33 -0.21,-0.71 -0.21,-1.13 v -3.21 z"
   id="path67"
   style="fill:url(#SVGID_7_);stroke-width:0.5" />
		</g>
	</g>
	<g
   id="g97"
   style="stroke-width:0.5">
		<g
   id="g95"
   style="stroke-width:0.5">
			<path
   class="st8"
   d="m 94.07,43.99 c -0.11,0.07 -0.27,0.18 -0.5,0.31 -0.23,0.13 -0.51,0.26 -0.85,0.37 -0.34,0.12 -0.73,0.22 -1.18,0.31 -0.45,0.09 -0.94,0.13 -1.47,0.13 -0.75,0 -1.44,-0.12 -2.09,-0.37 -0.65,-0.25 -1.21,-0.62 -1.7,-1.11 -0.49,-0.49 -0.87,-1.09 -1.15,-1.8 -0.28,-0.71 -0.42,-1.53 -0.42,-2.45 0,-0.88 0.14,-1.68 0.41,-2.41 0.27,-0.73 0.65,-1.35 1.14,-1.87 0.49,-0.52 1.06,-0.92 1.72,-1.21 0.66,-0.29 1.38,-0.43 2.17,-0.43 0.69,0 1.31,0.1 1.84,0.3 0.53,0.2 0.98,0.46 1.35,0.79 0.37,0.33 0.64,0.72 0.83,1.15 0.19,0.44 0.28,0.91 0.28,1.41 0,0.51 -0.09,0.98 -0.26,1.4 -0.17,0.42 -0.48,0.78 -0.92,1.08 -0.44,0.3 -1.03,0.54 -1.78,0.7 -0.75,0.17 -1.69,0.25 -2.84,0.25 -0.27,0 -0.52,0 -0.75,-0.01 -0.23,-0.01 -0.48,-0.02 -0.75,-0.03 0.11,0.75 0.44,1.35 0.99,1.82 0.55,0.46 1.34,0.69 2.37,0.69 0.35,0 0.67,-0.03 0.96,-0.09 0.29,-0.06 0.56,-0.13 0.79,-0.22 0.23,-0.09 0.43,-0.18 0.6,-0.26 0.17,-0.08 0.29,-0.15 0.37,-0.2 z m -7.02,-5.21 c 0.31,0.01 0.6,0.02 0.88,0.02 0.28,0 0.56,0 0.84,0 0.73,0 1.33,-0.05 1.78,-0.15 0.45,-0.1 0.81,-0.23 1.06,-0.4 0.25,-0.16 0.42,-0.34 0.5,-0.55 0.08,-0.21 0.12,-0.42 0.12,-0.64 0,-0.56 -0.2,-0.98 -0.61,-1.25 -0.41,-0.28 -0.91,-0.42 -1.51,-0.42 -0.49,0 -0.93,0.1 -1.3,0.29 -0.37,0.19 -0.69,0.44 -0.94,0.76 -0.25,0.32 -0.45,0.68 -0.59,1.09 -0.14,0.41 -0.22,0.82 -0.23,1.25 z"
   id="path73"
   style="stroke-width:0.5" />
			<path
   class="st8"
   d="m 100.32,44.81 c -0.63,-1.28 -1.2,-2.48 -1.72,-3.6 -0.52,-1.12 -0.97,-2.12 -1.34,-3 -0.37,-0.88 -0.66,-1.61 -0.86,-2.2 -0.2,-0.59 -0.3,-0.97 -0.3,-1.14 0,-0.31 0.09,-0.57 0.28,-0.78 0.19,-0.21 0.47,-0.32 0.86,-0.32 0.28,0 0.51,0.03 0.69,0.09 0.18,0.06 0.28,0.1 0.31,0.13 0.27,0.79 0.55,1.6 0.86,2.41 0.31,0.81 0.61,1.58 0.91,2.31 0.3,0.73 0.58,1.38 0.84,1.98 0.26,0.6 0.48,1.08 0.65,1.46 0.25,-0.53 0.53,-1.15 0.82,-1.87 0.29,-0.72 0.58,-1.43 0.85,-2.13 0.27,-0.7 0.52,-1.34 0.74,-1.92 0.22,-0.58 0.38,-1 0.47,-1.27 0.13,-0.37 0.29,-0.66 0.48,-0.87 0.19,-0.21 0.48,-0.32 0.88,-0.32 0.37,0 0.68,0.07 0.91,0.21 0.23,0.14 0.36,0.22 0.39,0.25 -0.08,0.31 -0.22,0.73 -0.41,1.27 -0.19,0.54 -0.43,1.13 -0.7,1.79 -0.27,0.66 -0.57,1.35 -0.88,2.07 -0.31,0.72 -0.62,1.42 -0.93,2.1 -0.31,0.68 -0.6,1.32 -0.87,1.9 -0.27,0.59 -0.5,1.07 -0.69,1.45 z"
   id="path75"
   style="stroke-width:0.5" />
			<path
   class="st8"
   d="m 117.7,43.99 c -0.11,0.07 -0.27,0.18 -0.5,0.31 -0.23,0.13 -0.51,0.26 -0.85,0.37 -0.34,0.12 -0.73,0.22 -1.18,0.31 -0.45,0.09 -0.94,0.13 -1.47,0.13 -0.75,0 -1.44,-0.12 -2.09,-0.37 -0.65,-0.25 -1.21,-0.62 -1.7,-1.11 -0.49,-0.49 -0.87,-1.09 -1.15,-1.8 -0.28,-0.71 -0.42,-1.53 -0.42,-2.45 0,-0.88 0.14,-1.68 0.41,-2.41 0.27,-0.73 0.65,-1.35 1.14,-1.87 0.49,-0.52 1.06,-0.92 1.72,-1.21 0.66,-0.29 1.38,-0.43 2.17,-0.43 0.69,0 1.31,0.1 1.84,0.3 0.53,0.2 0.98,0.46 1.35,0.79 0.37,0.33 0.64,0.72 0.83,1.15 0.19,0.44 0.28,0.91 0.28,1.41 0,0.51 -0.09,0.98 -0.26,1.4 -0.17,0.42 -0.48,0.78 -0.92,1.08 -0.44,0.3 -1.03,0.54 -1.78,0.7 -0.75,0.17 -1.69,0.25 -2.84,0.25 -0.27,0 -0.52,0 -0.75,-0.01 -0.23,-0.01 -0.48,-0.02 -0.75,-0.03 0.11,0.75 0.44,1.35 0.99,1.82 0.55,0.46 1.34,0.69 2.37,0.69 0.35,0 0.67,-0.03 0.96,-0.09 0.29,-0.06 0.56,-0.13 0.79,-0.22 0.23,-0.09 0.43,-0.18 0.6,-0.26 0.17,-0.08 0.29,-0.15 0.37,-0.2 z m -7.02,-5.21 c 0.31,0.01 0.6,0.02 0.88,0.02 0.28,0 0.56,0 0.84,0 0.73,0 1.33,-0.05 1.78,-0.15 0.45,-0.1 0.81,-0.23 1.06,-0.4 0.25,-0.16 0.42,-0.34 0.5,-0.55 0.08,-0.21 0.12,-0.42 0.12,-0.64 0,-0.56 -0.2,-0.98 -0.61,-1.25 -0.41,-0.28 -0.91,-0.42 -1.51,-0.42 -0.49,0 -0.93,0.1 -1.3,0.29 -0.37,0.19 -0.69,0.44 -0.94,0.76 -0.25,0.32 -0.45,0.68 -0.59,1.09 -0.14,0.41 -0.22,0.82 -0.23,1.25 z"
   id="path77"
   style="stroke-width:0.5" />
			<path
   class="st8"
   d="m 120.56,38.14 c 0,-0.73 0.12,-1.39 0.37,-1.97 0.25,-0.58 0.59,-1.07 1.02,-1.47 0.43,-0.4 0.95,-0.71 1.54,-0.92 0.59,-0.21 1.24,-0.32 1.95,-0.32 0.71,0 1.36,0.11 1.96,0.32 0.6,0.21 1.12,0.52 1.55,0.92 0.43,0.4 0.77,0.89 1.01,1.47 0.24,0.58 0.36,1.24 0.36,1.97 v 6.67 h -2.28 v -6.03 c 0,-1 -0.22,-1.76 -0.66,-2.28 -0.44,-0.52 -1.09,-0.78 -1.94,-0.78 -0.87,0 -1.52,0.26 -1.95,0.78 -0.43,0.52 -0.65,1.28 -0.65,2.28 v 6.03 h -2.28 z"
   id="path79"
   style="stroke-width:0.5" />
			<path
   class="st8"
   d="m 133.45,31.81 c 0,-0.41 0.11,-0.71 0.32,-0.89 0.21,-0.18 0.51,-0.27 0.88,-0.27 0.24,0 0.46,0.03 0.67,0.1 0.21,0.07 0.34,0.11 0.41,0.14 v 2.88 h 2.9 c 0.44,0 0.75,0.1 0.93,0.3 0.18,0.2 0.27,0.49 0.27,0.87 0,0.25 -0.03,0.48 -0.1,0.69 -0.07,0.21 -0.12,0.36 -0.16,0.45 h -3.84 v 4.91 c 0,0.38 0.05,0.69 0.14,0.94 0.09,0.24 0.22,0.44 0.39,0.58 0.17,0.15 0.36,0.25 0.58,0.31 0.22,0.06 0.45,0.09 0.69,0.09 0.39,0 0.75,-0.07 1.08,-0.2 0.33,-0.13 0.57,-0.26 0.72,-0.37 l 0.92,1.67 c -0.11,0.09 -0.26,0.2 -0.45,0.33 -0.19,0.13 -0.43,0.26 -0.71,0.37 -0.28,0.12 -0.59,0.22 -0.94,0.3 -0.35,0.08 -0.73,0.12 -1.14,0.12 -1.17,0 -2.06,-0.33 -2.66,-1 -0.6,-0.67 -0.9,-1.54 -0.9,-2.63 z"
   id="path81"
   style="stroke-width:0.5" />
			<path
   class="st8"
   d="m 145.2,37.59 c 0.39,0 0.66,0.12 0.82,0.36 0.16,0.24 0.24,0.55 0.24,0.91 0,0.24 -0.03,0.46 -0.08,0.67 -0.05,0.21 -0.1,0.37 -0.14,0.47 h -4.02 c -0.39,0 -0.66,-0.12 -0.81,-0.35 -0.15,-0.23 -0.23,-0.54 -0.23,-0.92 0,-0.25 0.03,-0.48 0.08,-0.68 0.05,-0.21 0.1,-0.36 0.14,-0.46 z"
   id="path83"
   style="stroke-width:0.5" />
			<path
   class="st8"
   d="m 149.08,37.7 c 0,-0.7 0.11,-1.32 0.34,-1.85 0.23,-0.53 0.54,-0.97 0.93,-1.32 0.39,-0.35 0.86,-0.62 1.39,-0.8 0.53,-0.18 1.11,-0.28 1.74,-0.28 0.83,0 1.57,0.17 2.22,0.51 0.65,0.34 1.17,0.84 1.56,1.5 0.39,-0.66 0.9,-1.16 1.54,-1.5 0.64,-0.34 1.37,-0.51 2.18,-0.51 0.61,0 1.19,0.09 1.72,0.27 0.53,0.18 0.99,0.44 1.38,0.79 0.39,0.35 0.69,0.79 0.92,1.32 0.23,0.53 0.34,1.14 0.34,1.85 v 7.13 h -2.28 v -6.27 c 0,-1.01 -0.21,-1.74 -0.62,-2.17 -0.41,-0.43 -0.97,-0.65 -1.68,-0.65 -0.68,0 -1.25,0.24 -1.71,0.73 -0.46,0.48 -0.69,1.27 -0.69,2.35 v 6.01 h -2.28 V 38.8 c 0,-1.09 -0.23,-1.87 -0.69,-2.35 -0.46,-0.48 -1.03,-0.73 -1.71,-0.73 -0.69,0 -1.25,0.22 -1.68,0.66 -0.43,0.44 -0.64,1.17 -0.64,2.18 v 6.25 h -2.28 z"
   id="path85"
   style="stroke-width:0.5" />
			<path
   class="st8"
   d="m 173.5,33.46 c 0.77,0 1.5,0.15 2.17,0.44 0.67,0.29 1.26,0.7 1.75,1.22 0.49,0.52 0.88,1.14 1.16,1.85 0.28,0.71 0.42,1.49 0.42,2.32 0,0.82 -0.14,1.59 -0.42,2.3 -0.28,0.71 -0.67,1.33 -1.16,1.85 -0.49,0.52 -1.08,0.93 -1.75,1.23 -0.67,0.3 -1.4,0.45 -2.17,0.45 -0.77,0 -1.5,-0.15 -2.17,-0.45 -0.67,-0.3 -1.26,-0.71 -1.75,-1.23 -0.49,-0.52 -0.88,-1.14 -1.16,-1.85 -0.28,-0.71 -0.42,-1.48 -0.42,-2.3 0,-0.83 0.14,-1.61 0.42,-2.32 0.28,-0.71 0.67,-1.33 1.16,-1.85 0.49,-0.52 1.08,-0.93 1.75,-1.22 0.68,-0.3 1.4,-0.44 2.17,-0.44 z m 0,9.43 c 0.45,0 0.87,-0.09 1.26,-0.28 0.39,-0.18 0.72,-0.44 0.99,-0.77 0.27,-0.33 0.49,-0.71 0.64,-1.14 0.15,-0.43 0.23,-0.91 0.23,-1.42 0,-0.51 -0.08,-0.99 -0.23,-1.44 -0.15,-0.45 -0.37,-0.83 -0.64,-1.15 -0.27,-0.32 -0.6,-0.58 -0.99,-0.76 -0.39,-0.18 -0.81,-0.28 -1.26,-0.28 -0.47,0 -0.89,0.09 -1.27,0.28 -0.38,0.18 -0.71,0.44 -0.98,0.76 -0.27,0.32 -0.49,0.71 -0.64,1.15 -0.15,0.45 -0.23,0.93 -0.23,1.44 0,0.51 0.08,0.99 0.23,1.42 0.15,0.43 0.37,0.81 0.64,1.14 0.27,0.33 0.6,0.59 0.98,0.77 0.38,0.19 0.81,0.28 1.27,0.28 z"
   id="path87"
   style="stroke-width:0.5" />
			<path
   class="st8"
   d="m 189.75,29.76 c 0,-0.4 0.1,-0.69 0.31,-0.88 0.21,-0.19 0.5,-0.29 0.89,-0.29 0.24,0 0.46,0.03 0.66,0.1 0.2,0.07 0.33,0.11 0.4,0.14 v 9.92 c 0,1.07 -0.14,2 -0.41,2.79 -0.27,0.79 -0.65,1.45 -1.13,1.98 -0.48,0.53 -1.05,0.92 -1.7,1.19 -0.65,0.26 -1.37,0.4 -2.14,0.4 -0.79,0 -1.51,-0.15 -2.17,-0.44 -0.66,-0.29 -1.23,-0.7 -1.71,-1.21 -0.48,-0.51 -0.86,-1.13 -1.13,-1.85 -0.27,-0.72 -0.41,-1.5 -0.41,-2.33 0,-0.85 0.13,-1.63 0.39,-2.34 0.26,-0.71 0.62,-1.33 1.08,-1.85 0.46,-0.52 1,-0.92 1.62,-1.21 0.62,-0.29 1.3,-0.43 2.03,-0.43 0.77,0 1.45,0.17 2.04,0.5 0.59,0.33 1.05,0.73 1.38,1.2 z m 0,9.53 c 0,-0.5 -0.08,-0.97 -0.23,-1.41 -0.15,-0.44 -0.36,-0.82 -0.63,-1.14 -0.27,-0.32 -0.59,-0.58 -0.97,-0.76 -0.38,-0.18 -0.8,-0.28 -1.25,-0.28 -0.47,0 -0.89,0.09 -1.26,0.28 -0.37,0.18 -0.7,0.43 -0.97,0.75 -0.27,0.32 -0.48,0.69 -0.63,1.13 -0.15,0.44 -0.22,0.92 -0.22,1.43 0,0.51 0.07,0.99 0.22,1.42 0.15,0.43 0.36,0.81 0.63,1.12 0.27,0.32 0.6,0.57 0.97,0.75 0.37,0.18 0.79,0.28 1.26,0.28 0.45,0 0.87,-0.09 1.25,-0.27 0.38,-0.18 0.7,-0.42 0.97,-0.73 0.27,-0.31 0.48,-0.68 0.63,-1.12 0.15,-0.44 0.23,-0.93 0.23,-1.45 z"
   id="path89"
   style="stroke-width:0.5" />
			<path
   class="st8"
   d="m 203.82,43.99 c -0.11,0.07 -0.27,0.18 -0.5,0.31 -0.23,0.13 -0.51,0.26 -0.85,0.37 -0.34,0.12 -0.73,0.22 -1.18,0.31 -0.45,0.09 -0.94,0.13 -1.47,0.13 -0.75,0 -1.44,-0.12 -2.09,-0.37 -0.65,-0.25 -1.21,-0.62 -1.7,-1.11 -0.49,-0.49 -0.87,-1.09 -1.15,-1.8 -0.28,-0.71 -0.42,-1.53 -0.42,-2.45 0,-0.88 0.14,-1.68 0.41,-2.41 0.27,-0.73 0.65,-1.35 1.14,-1.87 0.49,-0.52 1.06,-0.92 1.72,-1.21 0.66,-0.29 1.38,-0.43 2.17,-0.43 0.69,0 1.31,0.1 1.84,0.3 0.53,0.2 0.98,0.46 1.35,0.79 0.37,0.33 0.64,0.72 0.83,1.15 0.19,0.44 0.28,0.91 0.28,1.41 0,0.51 -0.09,0.98 -0.26,1.4 -0.17,0.42 -0.48,0.78 -0.92,1.08 -0.44,0.3 -1.03,0.54 -1.78,0.7 -0.75,0.17 -1.69,0.25 -2.84,0.25 -0.27,0 -0.52,0 -0.75,-0.01 -0.23,-0.01 -0.48,-0.02 -0.75,-0.03 0.11,0.75 0.44,1.35 0.99,1.82 0.55,0.46 1.34,0.69 2.37,0.69 0.35,0 0.67,-0.03 0.96,-0.09 0.29,-0.06 0.56,-0.13 0.79,-0.22 0.23,-0.09 0.43,-0.18 0.6,-0.26 0.17,-0.08 0.29,-0.15 0.37,-0.2 z m -7.02,-5.21 c 0.31,0.01 0.6,0.02 0.88,0.02 0.28,0 0.56,0 0.84,0 0.73,0 1.33,-0.05 1.78,-0.15 0.45,-0.1 0.81,-0.23 1.06,-0.4 0.25,-0.17 0.42,-0.34 0.5,-0.55 0.08,-0.21 0.12,-0.42 0.12,-0.64 0,-0.56 -0.2,-0.98 -0.61,-1.25 -0.41,-0.28 -0.91,-0.42 -1.51,-0.42 -0.49,0 -0.93,0.1 -1.3,0.29 -0.37,0.19 -0.69,0.44 -0.94,0.76 -0.25,0.32 -0.45,0.68 -0.59,1.09 -0.14,0.41 -0.21,0.82 -0.23,1.25 z"
   id="path91"
   style="stroke-width:0.5" />
			<path
   class="st8"
   d="m 206.85,29.76 c 0,-0.4 0.11,-0.69 0.32,-0.88 0.21,-0.19 0.51,-0.29 0.9,-0.29 0.24,0 0.46,0.03 0.66,0.1 0.2,0.07 0.33,0.11 0.4,0.14 V 44.8 h -2.28 z"
   id="path93"
   style="stroke-width:0.5" />
		</g>
	</g>
	<linearGradient
   id="SVGID_8_"
   gradientUnits="userSpaceOnUse"
   x1="59.0415"
   y1="62.723999"
   x2="59.0415"
   y2="26.886999">
		<stop
   offset="1.819156e-03"
   style="stop-color:#29A07C"
   id="stop99" />
		<stop
   offset="1"
   style="stop-color:#BAD532"
   id="stop101" />
	</linearGradient>
	<path
   class="st7"
   d="m 59.04,26.73 c -9.87,0 -17.87,8 -17.87,17.87 0,9.87 8,17.87 17.87,17.87 9.87,0 17.87,-8 17.87,-17.87 0,-9.87 -8,-17.87 -17.87,-17.87 z m 6.25,24.22 -4.58,-2.22 -1.75,10.13 -1.66,-10.16 -4.61,2.14 2.22,-4.58 -6.56,-1.75 6.59,-1.66 -2.14,-4.61 4.58,2.22 1.75,-10.13 1.66,10.16 4.61,-2.14 -2.22,4.58 6.56,1.75 -6.59,1.66 z"
   id="path104"
   style="fill:url(#SVGID_8_);stroke-width:0.5" />
</g>
</svg>
