<?xml version="1.0" encoding="utf-8"?>
<!-- Generator: Adobe Illustrator 24.3.0, SVG Export Plug-In . SVG Version: 6.00 Build 0)  -->
<svg version="1.1" id="Layer_1" xmlns="http://www.w3.org/2000/svg" xmlns:xlink="http://www.w3.org/1999/xlink" x="0px" y="0px"
	 viewBox="0 0 234 90" style="enable-background:new 0 0 234 90;" xml:space="preserve">
<style type="text/css">
	.st0{fill:url(#SVGID_1_);}
	.st1{fill:url(#SVGID_2_);}
	.st2{fill:url(#SVGID_3_);}
	.st3{fill:url(#SVGID_4_);}
	.st4{fill:url(#SVGID_5_);}
	.st5{fill:url(#SVGID_6_);}
	.st6{fill:url(#SVGID_7_);}
	.st7{fill:url(#SVGID_8_);}
	.st8{fill:#29A07C;}
	.st9{fill:url(#SVGID_9_);}
	.st10{fill:url(#SVGID_10_);}
	.st11{fill:#33BBED;}
	.st12{fill:url(#SVGID_11_);}
	.st13{fill:url(#SVGID_12_);}
	.st14{fill:url(#SVGID_13_);}
	.st15{fill:url(#SVGID_14_);}
	.st16{fill:url(#SVGID_15_);}
	.st17{fill:url(#SVGID_16_);}
	.st18{fill:url(#SVGID_17_);}
	.st19{fill:url(#SVGID_18_);}
</style>
<g>
	<g>
		<g>
			<path class="st11" d="M84.15,51.65c0-0.23,0.07-0.41,0.21-0.52c0.14-0.11,0.33-0.17,0.58-0.17c0.16,0,0.3,0.02,0.43,0.06
				c0.13,0.04,0.22,0.07,0.26,0.08v3.73c0.22-0.28,0.52-0.51,0.9-0.71c0.38-0.2,0.82-0.29,1.31-0.29c0.48,0,0.92,0.08,1.32,0.25
				c0.4,0.17,0.75,0.41,1.05,0.71c0.3,0.31,0.53,0.67,0.7,1.09s0.25,0.88,0.25,1.38c0,0.49-0.09,0.95-0.26,1.38
				c-0.17,0.42-0.42,0.79-0.73,1.09c-0.31,0.3-0.68,0.54-1.11,0.71c-0.43,0.17-0.9,0.26-1.41,0.26s-0.98-0.08-1.41-0.23
				c-0.43-0.16-0.8-0.39-1.11-0.7c-0.31-0.31-0.55-0.7-0.73-1.17c-0.17-0.47-0.26-1.02-0.26-1.65V51.65z M87.63,59.38
				c0.29,0,0.57-0.05,0.81-0.16s0.46-0.26,0.64-0.44c0.18-0.19,0.31-0.41,0.41-0.66c0.09-0.26,0.14-0.53,0.14-0.84
				c0-0.3-0.05-0.58-0.14-0.84c-0.1-0.26-0.23-0.48-0.41-0.67c-0.18-0.19-0.39-0.33-0.64-0.44s-0.52-0.16-0.81-0.16
				c-0.3,0-0.58,0.05-0.83,0.16s-0.46,0.26-0.63,0.45c-0.17,0.19-0.31,0.42-0.41,0.68c-0.1,0.26-0.15,0.54-0.15,0.83
				c0,0.31,0.05,0.6,0.15,0.86c0.1,0.26,0.24,0.48,0.42,0.66s0.39,0.32,0.64,0.43C87.07,59.33,87.34,59.38,87.63,59.38z"/>
			<path class="st11" d="M93.31,51.65c0-0.23,0.07-0.41,0.21-0.52c0.14-0.11,0.33-0.17,0.58-0.17c0.16,0,0.3,0.02,0.43,0.06
				s0.22,0.07,0.26,0.08v9.44h-1.48V51.65z"/>
			<path class="st11" d="M97.2,54.71c0-0.24,0.07-0.42,0.21-0.53s0.33-0.16,0.58-0.16c0.16,0,0.3,0.02,0.43,0.06
				s0.22,0.07,0.26,0.08v3.42c0,0.59,0.14,1.04,0.42,1.35s0.7,0.46,1.27,0.46c0.57,0,1-0.15,1.27-0.46s0.42-0.76,0.42-1.35v-2.87
				c0-0.24,0.07-0.42,0.21-0.53s0.33-0.16,0.57-0.16c0.16,0,0.31,0.02,0.44,0.06s0.22,0.07,0.26,0.08v3.74
				c0,0.44-0.08,0.84-0.23,1.19c-0.15,0.35-0.37,0.65-0.65,0.89c-0.28,0.24-0.62,0.43-1.01,0.55c-0.39,0.13-0.82,0.19-1.29,0.19
				s-0.9-0.06-1.29-0.19s-0.72-0.31-1-0.55c-0.28-0.24-0.49-0.54-0.65-0.89c-0.16-0.35-0.23-0.75-0.23-1.19V54.71z"/>
			<path class="st11" d="M111.69,60.06c-0.07,0.04-0.18,0.1-0.33,0.18c-0.15,0.08-0.33,0.15-0.55,0.22
				c-0.22,0.07-0.48,0.13-0.77,0.18c-0.29,0.05-0.61,0.08-0.96,0.08c-0.49,0-0.94-0.07-1.36-0.22c-0.42-0.15-0.79-0.37-1.11-0.66
				s-0.57-0.65-0.75-1.07s-0.27-0.9-0.27-1.45c0-0.52,0.09-0.99,0.27-1.42c0.18-0.43,0.42-0.8,0.74-1.1s0.69-0.55,1.12-0.71
				c0.43-0.17,0.9-0.25,1.41-0.25c0.45,0,0.85,0.06,1.2,0.18s0.64,0.27,0.88,0.47c0.24,0.2,0.42,0.42,0.54,0.68s0.18,0.54,0.18,0.83
				c0,0.3-0.06,0.58-0.17,0.83c-0.11,0.25-0.31,0.46-0.6,0.64c-0.29,0.18-0.67,0.32-1.16,0.42c-0.49,0.1-1.1,0.15-1.85,0.15
				c-0.17,0-0.34,0-0.49-0.01c-0.15,0-0.31-0.01-0.49-0.02c0.07,0.44,0.28,0.8,0.64,1.07s0.87,0.41,1.54,0.41
				c0.23,0,0.43-0.02,0.62-0.05s0.36-0.08,0.51-0.13c0.15-0.05,0.28-0.1,0.39-0.16c0.11-0.05,0.19-0.09,0.24-0.12L111.69,60.06z
				 M107.12,56.98c0.2,0.01,0.39,0.01,0.57,0.01c0.18,0,0.36,0,0.55,0c0.48,0,0.86-0.03,1.16-0.09c0.29-0.06,0.52-0.14,0.69-0.23
				c0.16-0.1,0.27-0.2,0.32-0.33c0.05-0.12,0.08-0.25,0.08-0.38c0-0.33-0.13-0.58-0.4-0.74s-0.59-0.25-0.98-0.25
				c-0.32,0-0.6,0.06-0.84,0.17c-0.24,0.11-0.45,0.26-0.61,0.45c-0.17,0.19-0.29,0.4-0.38,0.64S107.13,56.73,107.12,56.98z"/>
			<path class="st11" d="M114.09,58.92c0.06,0.04,0.17,0.1,0.33,0.17c0.16,0.07,0.35,0.14,0.58,0.21s0.49,0.14,0.79,0.19
				c0.29,0.05,0.62,0.08,0.96,0.08c0.45,0,0.82-0.06,1.11-0.18s0.43-0.32,0.43-0.6c0-0.24-0.09-0.43-0.27-0.55
				c-0.18-0.13-0.51-0.21-0.97-0.27l-1.01-0.12c-0.35-0.03-0.67-0.1-0.96-0.19c-0.29-0.09-0.54-0.21-0.75-0.37
				c-0.21-0.16-0.37-0.35-0.49-0.58c-0.12-0.23-0.18-0.5-0.18-0.83c0-0.28,0.05-0.54,0.16-0.79s0.28-0.47,0.51-0.66
				c0.23-0.19,0.54-0.34,0.92-0.45c0.38-0.11,0.83-0.16,1.37-0.16c0.9,0,1.6,0.1,2.1,0.3s0.75,0.46,0.75,0.78
				c0,0.1-0.02,0.2-0.06,0.27c-0.04,0.08-0.08,0.15-0.13,0.21c-0.05,0.06-0.1,0.11-0.15,0.15s-0.09,0.06-0.12,0.07
				c-0.03-0.03-0.11-0.09-0.23-0.16c-0.12-0.07-0.27-0.15-0.47-0.22c-0.2-0.07-0.44-0.14-0.71-0.19c-0.28-0.06-0.6-0.08-0.96-0.08
				c-1.01,0-1.51,0.26-1.51,0.79c0,0.23,0.09,0.4,0.29,0.51c0.19,0.12,0.46,0.2,0.82,0.24l1.33,0.17c0.72,0.1,1.28,0.29,1.68,0.59
				c0.4,0.3,0.6,0.74,0.6,1.32c0,0.65-0.26,1.17-0.77,1.56c-0.52,0.39-1.26,0.58-2.23,0.58c-0.47,0-0.89-0.03-1.27-0.1
				c-0.38-0.07-0.71-0.15-0.99-0.24c-0.28-0.09-0.51-0.18-0.68-0.27c-0.17-0.09-0.29-0.15-0.34-0.2L114.09,58.92z"/>
			<path class="st11" d="M121.9,51.65c0-0.23,0.07-0.41,0.21-0.52c0.14-0.11,0.33-0.17,0.58-0.17c0.16,0,0.3,0.02,0.43,0.06
				s0.22,0.07,0.26,0.08v5.31c0.11-0.08,0.27-0.19,0.47-0.34c0.2-0.15,0.43-0.32,0.68-0.5c0.25-0.18,0.51-0.37,0.78-0.57
				c0.27-0.2,0.52-0.38,0.77-0.56c0.19-0.14,0.36-0.24,0.52-0.32c0.16-0.07,0.36-0.11,0.61-0.11c0.23,0,0.43,0.06,0.6,0.19
				c0.17,0.13,0.27,0.23,0.31,0.32c-0.18,0.16-0.43,0.36-0.75,0.6s-0.64,0.48-0.97,0.71c-0.33,0.24-0.64,0.46-0.94,0.66
				c-0.29,0.2-0.51,0.35-0.64,0.45c0.74,0.55,1.41,1.14,2.01,1.78s1.12,1.24,1.53,1.82h-1.85c-0.2-0.24-0.42-0.5-0.67-0.76
				c-0.25-0.26-0.51-0.53-0.79-0.78c-0.28-0.26-0.57-0.5-0.86-0.74c-0.29-0.24-0.57-0.46-0.84-0.66v2.94h-1.48V51.65z"/>
			<path class="st11" d="M129.9,54.71c0-0.23,0.07-0.41,0.21-0.52c0.14-0.11,0.33-0.17,0.57-0.17c0.16,0,0.3,0.02,0.44,0.06
				c0.13,0.04,0.22,0.07,0.27,0.08v3.47c0,0.51,0.14,0.92,0.41,1.22c0.27,0.3,0.7,0.46,1.27,0.46c0.53,0,0.95-0.15,1.25-0.46
				c0.3-0.31,0.46-0.76,0.46-1.36v-2.78c0-0.23,0.07-0.41,0.21-0.52c0.14-0.11,0.33-0.17,0.57-0.17c0.16,0,0.3,0.02,0.44,0.06
				c0.13,0.04,0.22,0.07,0.27,0.08v5.69c0,0.62-0.08,1.14-0.25,1.57c-0.17,0.43-0.4,0.78-0.7,1.06c-0.3,0.28-0.67,0.48-1.09,0.6
				c-0.42,0.13-0.9,0.19-1.42,0.19c-0.36,0-0.68-0.02-0.97-0.06c-0.29-0.04-0.56-0.08-0.79-0.14c-0.23-0.05-0.42-0.1-0.57-0.15
				c-0.15-0.05-0.25-0.08-0.31-0.11c0.07-0.18,0.13-0.37,0.2-0.55c0.06-0.19,0.12-0.37,0.18-0.55c0.06,0.03,0.16,0.06,0.29,0.1
				c0.13,0.04,0.29,0.08,0.47,0.12s0.39,0.07,0.62,0.1c0.23,0.03,0.47,0.04,0.73,0.04c0.34,0,0.64-0.04,0.91-0.11s0.5-0.2,0.68-0.38
				c0.19-0.18,0.33-0.42,0.43-0.72s0.15-0.67,0.15-1.12c-0.17,0.25-0.44,0.45-0.81,0.6c-0.37,0.15-0.77,0.23-1.21,0.23
				c-0.42,0-0.8-0.06-1.16-0.18c-0.36-0.12-0.66-0.29-0.91-0.51c-0.25-0.22-0.45-0.5-0.59-0.83c-0.14-0.33-0.21-0.71-0.21-1.13
				V54.71z"/>
		</g>
		<g>
			<linearGradient id="SVGID_1_" gradientUnits="userSpaceOnUse" x1="110.1963" y1="63.271" x2="110.1963" y2="50.9614">
				<stop  offset="0" style="stop-color:#33BBED"/>
				<stop  offset="0.9982" style="stop-color:#3777BC"/>
			</linearGradient>
			<path class="st0" d="M84.15,51.65c0-0.23,0.07-0.41,0.21-0.52c0.14-0.11,0.33-0.17,0.58-0.17c0.16,0,0.3,0.02,0.43,0.06
				c0.13,0.04,0.22,0.07,0.26,0.08v3.73c0.22-0.28,0.52-0.51,0.9-0.71c0.38-0.2,0.82-0.29,1.31-0.29c0.48,0,0.92,0.08,1.32,0.25
				c0.4,0.17,0.75,0.41,1.05,0.71c0.3,0.31,0.53,0.67,0.7,1.09s0.25,0.88,0.25,1.38c0,0.49-0.09,0.95-0.26,1.38
				c-0.17,0.42-0.42,0.79-0.73,1.09c-0.31,0.3-0.68,0.54-1.11,0.71c-0.43,0.17-0.9,0.26-1.41,0.26s-0.98-0.08-1.41-0.23
				c-0.43-0.16-0.8-0.39-1.11-0.7c-0.31-0.31-0.55-0.7-0.73-1.17c-0.17-0.47-0.26-1.02-0.26-1.65V51.65z M87.63,59.38
				c0.29,0,0.57-0.05,0.81-0.16s0.46-0.26,0.64-0.44c0.18-0.19,0.31-0.41,0.41-0.66c0.09-0.26,0.14-0.53,0.14-0.84
				c0-0.3-0.05-0.58-0.14-0.84c-0.1-0.26-0.23-0.48-0.41-0.67c-0.18-0.19-0.39-0.33-0.64-0.44s-0.52-0.16-0.81-0.16
				c-0.3,0-0.58,0.05-0.83,0.16s-0.46,0.26-0.63,0.45c-0.17,0.19-0.31,0.42-0.41,0.68c-0.1,0.26-0.15,0.54-0.15,0.83
				c0,0.31,0.05,0.6,0.15,0.86c0.1,0.26,0.24,0.48,0.42,0.66s0.39,0.32,0.64,0.43C87.07,59.33,87.34,59.38,87.63,59.38z"/>
			<linearGradient id="SVGID_2_" gradientUnits="userSpaceOnUse" x1="110.1963" y1="63.271" x2="110.1963" y2="50.9614">
				<stop  offset="0" style="stop-color:#33BBED"/>
				<stop  offset="0.9982" style="stop-color:#3777BC"/>
			</linearGradient>
			<path class="st1" d="M93.31,51.65c0-0.23,0.07-0.41,0.21-0.52c0.14-0.11,0.33-0.17,0.58-0.17c0.16,0,0.3,0.02,0.43,0.06
				s0.22,0.07,0.26,0.08v9.44h-1.48V51.65z"/>
			<linearGradient id="SVGID_3_" gradientUnits="userSpaceOnUse" x1="110.1963" y1="63.271" x2="110.1963" y2="50.9614">
				<stop  offset="0" style="stop-color:#33BBED"/>
				<stop  offset="0.9982" style="stop-color:#3777BC"/>
			</linearGradient>
			<path class="st2" d="M97.2,54.71c0-0.24,0.07-0.42,0.21-0.53s0.33-0.16,0.58-0.16c0.16,0,0.3,0.02,0.43,0.06s0.22,0.07,0.26,0.08
				v3.42c0,0.59,0.14,1.04,0.42,1.35s0.7,0.46,1.27,0.46c0.57,0,1-0.15,1.27-0.46s0.42-0.76,0.42-1.35v-2.87
				c0-0.24,0.07-0.42,0.21-0.53s0.33-0.16,0.57-0.16c0.16,0,0.31,0.02,0.44,0.06s0.22,0.07,0.26,0.08v3.74
				c0,0.44-0.08,0.84-0.23,1.19c-0.15,0.35-0.37,0.65-0.65,0.89c-0.28,0.24-0.62,0.43-1.01,0.55c-0.39,0.13-0.82,0.19-1.29,0.19
				s-0.9-0.06-1.29-0.19s-0.72-0.31-1-0.55c-0.28-0.24-0.49-0.54-0.65-0.89c-0.16-0.35-0.23-0.75-0.23-1.19V54.71z"/>
			<linearGradient id="SVGID_4_" gradientUnits="userSpaceOnUse" x1="110.1963" y1="63.271" x2="110.1963" y2="50.9614">
				<stop  offset="0" style="stop-color:#33BBED"/>
				<stop  offset="0.9982" style="stop-color:#3777BC"/>
			</linearGradient>
			<path class="st3" d="M111.69,60.06c-0.07,0.04-0.18,0.1-0.33,0.18c-0.15,0.08-0.33,0.15-0.55,0.22
				c-0.22,0.07-0.48,0.13-0.77,0.18c-0.29,0.05-0.61,0.08-0.96,0.08c-0.49,0-0.94-0.07-1.36-0.22c-0.42-0.15-0.79-0.37-1.11-0.66
				s-0.57-0.65-0.75-1.07s-0.27-0.9-0.27-1.45c0-0.52,0.09-0.99,0.27-1.42c0.18-0.43,0.42-0.8,0.74-1.1s0.69-0.55,1.12-0.71
				c0.43-0.17,0.9-0.25,1.41-0.25c0.45,0,0.85,0.06,1.2,0.18s0.64,0.27,0.88,0.47c0.24,0.2,0.42,0.42,0.54,0.68s0.18,0.54,0.18,0.83
				c0,0.3-0.06,0.58-0.17,0.83c-0.11,0.25-0.31,0.46-0.6,0.64c-0.29,0.18-0.67,0.32-1.16,0.42c-0.49,0.1-1.1,0.15-1.85,0.15
				c-0.17,0-0.34,0-0.49-0.01c-0.15,0-0.31-0.01-0.49-0.02c0.07,0.44,0.28,0.8,0.64,1.07s0.87,0.41,1.54,0.41
				c0.23,0,0.43-0.02,0.62-0.05s0.36-0.08,0.51-0.13c0.15-0.05,0.28-0.1,0.39-0.16c0.11-0.05,0.19-0.09,0.24-0.12L111.69,60.06z
				 M107.12,56.98c0.2,0.01,0.39,0.01,0.57,0.01c0.18,0,0.36,0,0.55,0c0.48,0,0.86-0.03,1.16-0.09c0.29-0.06,0.52-0.14,0.69-0.23
				c0.16-0.1,0.27-0.2,0.32-0.33c0.05-0.12,0.08-0.25,0.08-0.38c0-0.33-0.13-0.58-0.4-0.74s-0.59-0.25-0.98-0.25
				c-0.32,0-0.6,0.06-0.84,0.17c-0.24,0.11-0.45,0.26-0.61,0.45c-0.17,0.19-0.29,0.4-0.38,0.64S107.13,56.73,107.12,56.98z"/>
			<linearGradient id="SVGID_5_" gradientUnits="userSpaceOnUse" x1="110.1963" y1="63.271" x2="110.1963" y2="50.9614">
				<stop  offset="0" style="stop-color:#33BBED"/>
				<stop  offset="0.9982" style="stop-color:#3777BC"/>
			</linearGradient>
			<path class="st4" d="M114.09,58.92c0.06,0.04,0.17,0.1,0.33,0.17c0.16,0.07,0.35,0.14,0.58,0.21s0.49,0.14,0.79,0.19
				c0.29,0.05,0.62,0.08,0.96,0.08c0.45,0,0.82-0.06,1.11-0.18s0.43-0.32,0.43-0.6c0-0.24-0.09-0.43-0.27-0.55
				c-0.18-0.13-0.51-0.21-0.97-0.27l-1.01-0.12c-0.35-0.03-0.67-0.1-0.96-0.19c-0.29-0.09-0.54-0.21-0.75-0.37
				c-0.21-0.16-0.37-0.35-0.49-0.58c-0.12-0.23-0.18-0.5-0.18-0.83c0-0.28,0.05-0.54,0.16-0.79s0.28-0.47,0.51-0.66
				c0.23-0.19,0.54-0.34,0.92-0.45c0.38-0.11,0.83-0.16,1.37-0.16c0.9,0,1.6,0.1,2.1,0.3s0.75,0.46,0.75,0.78
				c0,0.1-0.02,0.2-0.06,0.27c-0.04,0.08-0.08,0.15-0.13,0.21c-0.05,0.06-0.1,0.11-0.15,0.15s-0.09,0.06-0.12,0.07
				c-0.03-0.03-0.11-0.09-0.23-0.16c-0.12-0.07-0.27-0.15-0.47-0.22c-0.2-0.07-0.44-0.14-0.71-0.19c-0.28-0.06-0.6-0.08-0.96-0.08
				c-1.01,0-1.51,0.26-1.51,0.79c0,0.23,0.09,0.4,0.29,0.51c0.19,0.12,0.46,0.2,0.82,0.24l1.33,0.17c0.72,0.1,1.28,0.29,1.68,0.59
				c0.4,0.3,0.6,0.74,0.6,1.32c0,0.65-0.26,1.17-0.77,1.56c-0.52,0.39-1.26,0.58-2.23,0.58c-0.47,0-0.89-0.03-1.27-0.1
				c-0.38-0.07-0.71-0.15-0.99-0.24c-0.28-0.09-0.51-0.18-0.68-0.27c-0.17-0.09-0.29-0.15-0.34-0.2L114.09,58.92z"/>
			<linearGradient id="SVGID_6_" gradientUnits="userSpaceOnUse" x1="110.1963" y1="63.271" x2="110.1963" y2="50.9614">
				<stop  offset="0" style="stop-color:#33BBED"/>
				<stop  offset="0.9982" style="stop-color:#3777BC"/>
			</linearGradient>
			<path class="st5" d="M121.9,51.65c0-0.23,0.07-0.41,0.21-0.52c0.14-0.11,0.33-0.17,0.58-0.17c0.16,0,0.3,0.02,0.43,0.06
				s0.22,0.07,0.26,0.08v5.31c0.11-0.08,0.27-0.19,0.47-0.34c0.2-0.15,0.43-0.32,0.68-0.5c0.25-0.18,0.51-0.37,0.78-0.57
				c0.27-0.2,0.52-0.38,0.77-0.56c0.19-0.14,0.36-0.24,0.52-0.32c0.16-0.07,0.36-0.11,0.61-0.11c0.23,0,0.43,0.06,0.6,0.19
				c0.17,0.13,0.27,0.23,0.31,0.32c-0.18,0.16-0.43,0.36-0.75,0.6s-0.64,0.48-0.97,0.71c-0.33,0.24-0.64,0.46-0.94,0.66
				c-0.29,0.2-0.51,0.35-0.64,0.45c0.74,0.55,1.41,1.14,2.01,1.78s1.12,1.24,1.53,1.82h-1.85c-0.2-0.24-0.42-0.5-0.67-0.76
				c-0.25-0.26-0.51-0.53-0.79-0.78c-0.28-0.26-0.57-0.5-0.86-0.74c-0.29-0.24-0.57-0.46-0.84-0.66v2.94h-1.48V51.65z"/>
			<linearGradient id="SVGID_7_" gradientUnits="userSpaceOnUse" x1="110.1963" y1="63.271" x2="110.1963" y2="50.9614">
				<stop  offset="0" style="stop-color:#33BBED"/>
				<stop  offset="0.9982" style="stop-color:#3777BC"/>
			</linearGradient>
			<path class="st6" d="M129.9,54.71c0-0.23,0.07-0.41,0.21-0.52c0.14-0.11,0.33-0.17,0.57-0.17c0.16,0,0.3,0.02,0.44,0.06
				c0.13,0.04,0.22,0.07,0.27,0.08v3.47c0,0.51,0.14,0.92,0.41,1.22c0.27,0.3,0.7,0.46,1.27,0.46c0.53,0,0.95-0.15,1.25-0.46
				c0.3-0.31,0.46-0.76,0.46-1.36v-2.78c0-0.23,0.07-0.41,0.21-0.52c0.14-0.11,0.33-0.17,0.57-0.17c0.16,0,0.3,0.02,0.44,0.06
				c0.13,0.04,0.22,0.07,0.27,0.08v5.69c0,0.62-0.08,1.14-0.25,1.57c-0.17,0.43-0.4,0.78-0.7,1.06c-0.3,0.28-0.67,0.48-1.09,0.6
				c-0.42,0.13-0.9,0.19-1.42,0.19c-0.36,0-0.68-0.02-0.97-0.06c-0.29-0.04-0.56-0.08-0.79-0.14c-0.23-0.05-0.42-0.1-0.57-0.15
				c-0.15-0.05-0.25-0.08-0.31-0.11c0.07-0.18,0.13-0.37,0.2-0.55c0.06-0.19,0.12-0.37,0.18-0.55c0.06,0.03,0.16,0.06,0.29,0.1
				c0.13,0.04,0.29,0.08,0.47,0.12s0.39,0.07,0.62,0.1c0.23,0.03,0.47,0.04,0.73,0.04c0.34,0,0.64-0.04,0.91-0.11s0.5-0.2,0.68-0.38
				c0.19-0.18,0.33-0.42,0.43-0.72s0.15-0.67,0.15-1.12c-0.17,0.25-0.44,0.45-0.81,0.6c-0.37,0.15-0.77,0.23-1.21,0.23
				c-0.42,0-0.8-0.06-1.16-0.18c-0.36-0.12-0.66-0.29-0.91-0.51c-0.25-0.22-0.45-0.5-0.59-0.83c-0.14-0.33-0.21-0.71-0.21-1.13
				V54.71z"/>
		</g>
	</g>
	<g>
		<g>
			<path class="st8" d="M94.07,43.99c-0.11,0.07-0.27,0.18-0.5,0.31c-0.23,0.13-0.51,0.26-0.85,0.37c-0.34,0.12-0.73,0.22-1.18,0.31
				c-0.45,0.09-0.94,0.13-1.47,0.13c-0.75,0-1.44-0.12-2.09-0.37c-0.65-0.25-1.21-0.62-1.7-1.11c-0.49-0.49-0.87-1.09-1.15-1.8
				c-0.28-0.71-0.42-1.53-0.42-2.45c0-0.88,0.14-1.68,0.41-2.41c0.27-0.73,0.65-1.35,1.14-1.87c0.49-0.52,1.06-0.92,1.72-1.21
				c0.66-0.29,1.38-0.43,2.17-0.43c0.69,0,1.31,0.1,1.84,0.3c0.53,0.2,0.98,0.46,1.35,0.79c0.37,0.33,0.64,0.72,0.83,1.15
				c0.19,0.44,0.28,0.91,0.28,1.41c0,0.51-0.09,0.98-0.26,1.4c-0.17,0.42-0.48,0.78-0.92,1.08c-0.44,0.3-1.03,0.54-1.78,0.7
				c-0.75,0.17-1.69,0.25-2.84,0.25c-0.27,0-0.52,0-0.75-0.01c-0.23-0.01-0.48-0.02-0.75-0.03c0.11,0.75,0.44,1.35,0.99,1.82
				c0.55,0.46,1.34,0.69,2.37,0.69c0.35,0,0.67-0.03,0.96-0.09c0.29-0.06,0.56-0.13,0.79-0.22c0.23-0.09,0.43-0.18,0.6-0.26
				s0.29-0.15,0.37-0.2L94.07,43.99z M87.05,38.78c0.31,0.01,0.6,0.02,0.88,0.02c0.28,0,0.56,0,0.84,0c0.73,0,1.33-0.05,1.78-0.15
				s0.81-0.23,1.06-0.4c0.25-0.16,0.42-0.34,0.5-0.55c0.08-0.21,0.12-0.42,0.12-0.64c0-0.56-0.2-0.98-0.61-1.25
				c-0.41-0.28-0.91-0.42-1.51-0.42c-0.49,0-0.93,0.1-1.3,0.29c-0.37,0.19-0.69,0.44-0.94,0.76c-0.25,0.32-0.45,0.68-0.59,1.09
				C87.14,37.94,87.06,38.35,87.05,38.78z"/>
			<path class="st8" d="M100.32,44.81c-0.63-1.28-1.2-2.48-1.72-3.6c-0.52-1.12-0.97-2.12-1.34-3s-0.66-1.61-0.86-2.2
				c-0.2-0.59-0.3-0.97-0.3-1.14c0-0.31,0.09-0.57,0.28-0.78c0.19-0.21,0.47-0.32,0.86-0.32c0.28,0,0.51,0.03,0.69,0.09
				c0.18,0.06,0.28,0.1,0.31,0.13c0.27,0.79,0.55,1.6,0.86,2.41c0.31,0.81,0.61,1.58,0.91,2.31c0.3,0.73,0.58,1.38,0.84,1.98
				s0.48,1.08,0.65,1.46c0.25-0.53,0.53-1.15,0.82-1.87s0.58-1.43,0.85-2.13c0.27-0.7,0.52-1.34,0.74-1.92
				c0.22-0.58,0.38-1,0.47-1.27c0.13-0.37,0.29-0.66,0.48-0.87c0.19-0.21,0.48-0.32,0.88-0.32c0.37,0,0.68,0.07,0.91,0.21
				c0.23,0.14,0.36,0.22,0.39,0.25c-0.08,0.31-0.22,0.73-0.41,1.27c-0.19,0.54-0.43,1.13-0.7,1.79c-0.27,0.66-0.57,1.35-0.88,2.07
				s-0.62,1.42-0.93,2.1c-0.31,0.68-0.6,1.32-0.87,1.9c-0.27,0.59-0.5,1.07-0.69,1.45H100.32z"/>
			<path class="st8" d="M117.7,43.99c-0.11,0.07-0.27,0.18-0.5,0.31c-0.23,0.13-0.51,0.26-0.85,0.37c-0.34,0.12-0.73,0.22-1.18,0.31
				c-0.45,0.09-0.94,0.13-1.47,0.13c-0.75,0-1.44-0.12-2.09-0.37c-0.65-0.25-1.21-0.62-1.7-1.11c-0.49-0.49-0.87-1.09-1.15-1.8
				c-0.28-0.71-0.42-1.53-0.42-2.45c0-0.88,0.14-1.68,0.41-2.41c0.27-0.73,0.65-1.35,1.14-1.87c0.49-0.52,1.06-0.92,1.72-1.21
				c0.66-0.29,1.38-0.43,2.17-0.43c0.69,0,1.31,0.1,1.84,0.3c0.53,0.2,0.98,0.46,1.35,0.79c0.37,0.33,0.64,0.72,0.83,1.15
				c0.19,0.44,0.28,0.91,0.28,1.41c0,0.51-0.09,0.98-0.26,1.4c-0.17,0.42-0.48,0.78-0.92,1.08c-0.44,0.3-1.03,0.54-1.78,0.7
				c-0.75,0.17-1.69,0.25-2.84,0.25c-0.27,0-0.52,0-0.75-0.01c-0.23-0.01-0.48-0.02-0.75-0.03c0.11,0.75,0.44,1.35,0.99,1.82
				c0.55,0.46,1.34,0.69,2.37,0.69c0.35,0,0.67-0.03,0.96-0.09c0.29-0.06,0.56-0.13,0.79-0.22c0.23-0.09,0.43-0.18,0.6-0.26
				s0.29-0.15,0.37-0.2L117.7,43.99z M110.68,38.78c0.31,0.01,0.6,0.02,0.88,0.02c0.28,0,0.56,0,0.84,0c0.73,0,1.33-0.05,1.78-0.15
				s0.81-0.23,1.06-0.4c0.25-0.16,0.42-0.34,0.5-0.55c0.08-0.21,0.12-0.42,0.12-0.64c0-0.56-0.2-0.98-0.61-1.25
				c-0.41-0.28-0.91-0.42-1.51-0.42c-0.49,0-0.93,0.1-1.3,0.29c-0.37,0.19-0.69,0.44-0.94,0.76c-0.25,0.32-0.45,0.68-0.59,1.09
				C110.77,37.94,110.69,38.35,110.68,38.78z"/>
			<path class="st8" d="M120.56,38.14c0-0.73,0.12-1.39,0.37-1.97c0.25-0.58,0.59-1.07,1.02-1.47c0.43-0.4,0.95-0.71,1.54-0.92
				c0.59-0.21,1.24-0.32,1.95-0.32c0.71,0,1.36,0.11,1.96,0.32c0.6,0.21,1.12,0.52,1.55,0.92c0.43,0.4,0.77,0.89,1.01,1.47
				c0.24,0.58,0.36,1.24,0.36,1.97v6.67h-2.28v-6.03c0-1-0.22-1.76-0.66-2.28c-0.44-0.52-1.09-0.78-1.94-0.78
				c-0.87,0-1.52,0.26-1.95,0.78c-0.43,0.52-0.65,1.28-0.65,2.28v6.03h-2.28V38.14z"/>
			<path class="st8" d="M133.45,31.81c0-0.41,0.11-0.71,0.32-0.89c0.21-0.18,0.51-0.27,0.88-0.27c0.24,0,0.46,0.03,0.67,0.1
				c0.21,0.07,0.34,0.11,0.41,0.14v2.88h2.9c0.44,0,0.75,0.1,0.93,0.3c0.18,0.2,0.27,0.49,0.27,0.87c0,0.25-0.03,0.48-0.1,0.69
				c-0.07,0.21-0.12,0.36-0.16,0.45h-3.84v4.91c0,0.38,0.05,0.69,0.14,0.94c0.09,0.24,0.22,0.44,0.39,0.58
				c0.17,0.15,0.36,0.25,0.58,0.31s0.45,0.09,0.69,0.09c0.39,0,0.75-0.07,1.08-0.2s0.57-0.26,0.72-0.37l0.92,1.67
				c-0.11,0.09-0.26,0.2-0.45,0.33c-0.19,0.13-0.43,0.26-0.71,0.37c-0.28,0.12-0.59,0.22-0.94,0.3c-0.35,0.08-0.73,0.12-1.14,0.12
				c-1.17,0-2.06-0.33-2.66-1c-0.6-0.67-0.9-1.54-0.9-2.63V31.81z"/>
			<path class="st8" d="M145.2,37.59c0.39,0,0.66,0.12,0.82,0.36s0.24,0.55,0.24,0.91c0,0.24-0.03,0.46-0.08,0.67
				c-0.05,0.21-0.1,0.37-0.14,0.47h-4.02c-0.39,0-0.66-0.12-0.81-0.35c-0.15-0.23-0.23-0.54-0.23-0.92c0-0.25,0.03-0.48,0.08-0.68
				c0.05-0.21,0.1-0.36,0.14-0.46H145.2z"/>
			<path class="st8" d="M149.08,37.7c0-0.7,0.11-1.32,0.34-1.85c0.23-0.53,0.54-0.97,0.93-1.32c0.39-0.35,0.86-0.62,1.39-0.8
				c0.53-0.18,1.11-0.28,1.74-0.28c0.83,0,1.57,0.17,2.22,0.51c0.65,0.34,1.17,0.84,1.56,1.5c0.39-0.66,0.9-1.16,1.54-1.5
				c0.64-0.34,1.37-0.51,2.18-0.51c0.61,0,1.19,0.09,1.72,0.27c0.53,0.18,0.99,0.44,1.38,0.79c0.39,0.35,0.69,0.79,0.92,1.32
				c0.23,0.53,0.34,1.14,0.34,1.85v7.13h-2.28v-6.27c0-1.01-0.21-1.74-0.62-2.17c-0.41-0.43-0.97-0.65-1.68-0.65
				c-0.68,0-1.25,0.24-1.71,0.73c-0.46,0.48-0.69,1.27-0.69,2.35v6.01h-2.28V38.8c0-1.09-0.23-1.87-0.69-2.35
				c-0.46-0.48-1.03-0.73-1.71-0.73c-0.69,0-1.25,0.22-1.68,0.66c-0.43,0.44-0.64,1.17-0.64,2.18v6.25h-2.28V37.7z"/>
			<path class="st8" d="M173.5,33.46c0.77,0,1.5,0.15,2.17,0.44c0.67,0.29,1.26,0.7,1.75,1.22c0.49,0.52,0.88,1.14,1.16,1.85
				c0.28,0.71,0.42,1.49,0.42,2.32c0,0.82-0.14,1.59-0.42,2.3c-0.28,0.71-0.67,1.33-1.16,1.85c-0.49,0.52-1.08,0.93-1.75,1.23
				c-0.67,0.3-1.4,0.45-2.17,0.45c-0.77,0-1.5-0.15-2.17-0.45c-0.67-0.3-1.26-0.71-1.75-1.23c-0.49-0.52-0.88-1.14-1.16-1.85
				c-0.28-0.71-0.42-1.48-0.42-2.3c0-0.83,0.14-1.61,0.42-2.32c0.28-0.71,0.67-1.33,1.16-1.85c0.49-0.52,1.08-0.93,1.75-1.22
				C172.01,33.6,172.73,33.46,173.5,33.46z M173.5,42.89c0.45,0,0.87-0.09,1.26-0.28c0.39-0.18,0.72-0.44,0.99-0.77
				c0.27-0.33,0.49-0.71,0.64-1.14c0.15-0.43,0.23-0.91,0.23-1.42c0-0.51-0.08-0.99-0.23-1.44c-0.15-0.45-0.37-0.83-0.64-1.15
				c-0.27-0.32-0.6-0.58-0.99-0.76c-0.39-0.18-0.81-0.28-1.26-0.28c-0.47,0-0.89,0.09-1.27,0.28c-0.38,0.18-0.71,0.44-0.98,0.76
				c-0.27,0.32-0.49,0.71-0.64,1.15c-0.15,0.45-0.23,0.93-0.23,1.44c0,0.51,0.08,0.99,0.23,1.42c0.15,0.43,0.37,0.81,0.64,1.14
				s0.6,0.59,0.98,0.77C172.61,42.8,173.04,42.89,173.5,42.89z"/>
			<path class="st8" d="M189.75,29.76c0-0.4,0.1-0.69,0.31-0.88c0.21-0.19,0.5-0.29,0.89-0.29c0.24,0,0.46,0.03,0.66,0.1
				c0.2,0.07,0.33,0.11,0.4,0.14v9.92c0,1.07-0.14,2-0.41,2.79c-0.27,0.79-0.65,1.45-1.13,1.98c-0.48,0.53-1.05,0.92-1.7,1.19
				c-0.65,0.26-1.37,0.4-2.14,0.4c-0.79,0-1.51-0.15-2.17-0.44c-0.66-0.29-1.23-0.7-1.71-1.21c-0.48-0.51-0.86-1.13-1.13-1.85
				c-0.27-0.72-0.41-1.5-0.41-2.33c0-0.85,0.13-1.63,0.39-2.34c0.26-0.71,0.62-1.33,1.08-1.85c0.46-0.52,1-0.92,1.62-1.21
				c0.62-0.29,1.3-0.43,2.03-0.43c0.77,0,1.45,0.17,2.04,0.5c0.59,0.33,1.05,0.73,1.38,1.2V29.76z M189.75,39.29
				c0-0.5-0.08-0.97-0.23-1.41s-0.36-0.82-0.63-1.14c-0.27-0.32-0.59-0.58-0.97-0.76c-0.38-0.18-0.8-0.28-1.25-0.28
				c-0.47,0-0.89,0.09-1.26,0.28c-0.37,0.18-0.7,0.43-0.97,0.75s-0.48,0.69-0.63,1.13c-0.15,0.44-0.22,0.92-0.22,1.43
				c0,0.51,0.07,0.99,0.22,1.42c0.15,0.43,0.36,0.81,0.63,1.12c0.27,0.32,0.6,0.57,0.97,0.75c0.37,0.18,0.79,0.28,1.26,0.28
				c0.45,0,0.87-0.09,1.25-0.27c0.38-0.18,0.7-0.42,0.97-0.73c0.27-0.31,0.48-0.68,0.63-1.12C189.67,40.3,189.75,39.81,189.75,39.29
				z"/>
			<path class="st8" d="M203.82,43.99c-0.11,0.07-0.27,0.18-0.5,0.31c-0.23,0.13-0.51,0.26-0.85,0.37
				c-0.34,0.12-0.73,0.22-1.18,0.31c-0.45,0.09-0.94,0.13-1.47,0.13c-0.75,0-1.44-0.12-2.09-0.37c-0.65-0.25-1.21-0.62-1.7-1.11
				c-0.49-0.49-0.87-1.09-1.15-1.8c-0.28-0.71-0.42-1.53-0.42-2.45c0-0.88,0.14-1.68,0.41-2.41c0.27-0.73,0.65-1.35,1.14-1.87
				c0.49-0.52,1.06-0.92,1.72-1.21c0.66-0.29,1.38-0.43,2.17-0.43c0.69,0,1.31,0.1,1.84,0.3c0.53,0.2,0.98,0.46,1.35,0.79
				c0.37,0.33,0.64,0.72,0.83,1.15c0.19,0.44,0.28,0.91,0.28,1.41c0,0.51-0.09,0.98-0.26,1.4c-0.17,0.42-0.48,0.78-0.92,1.08
				c-0.44,0.3-1.03,0.54-1.78,0.7c-0.75,0.17-1.69,0.25-2.84,0.25c-0.27,0-0.52,0-0.75-0.01c-0.23-0.01-0.48-0.02-0.75-0.03
				c0.11,0.75,0.44,1.35,0.99,1.82c0.55,0.46,1.34,0.69,2.37,0.69c0.35,0,0.67-0.03,0.96-0.09s0.56-0.13,0.79-0.22
				c0.23-0.09,0.43-0.18,0.6-0.26s0.29-0.15,0.37-0.2L203.82,43.99z M196.8,38.78c0.31,0.01,0.6,0.02,0.88,0.02
				c0.28,0,0.56,0,0.84,0c0.73,0,1.33-0.05,1.78-0.15c0.45-0.1,0.81-0.23,1.06-0.4s0.42-0.34,0.5-0.55
				c0.08-0.21,0.12-0.42,0.12-0.64c0-0.56-0.2-0.98-0.61-1.25c-0.41-0.28-0.91-0.42-1.51-0.42c-0.49,0-0.93,0.1-1.3,0.29
				c-0.37,0.19-0.69,0.44-0.94,0.76c-0.25,0.32-0.45,0.68-0.59,1.09C196.89,37.94,196.82,38.35,196.8,38.78z"/>
			<path class="st8" d="M206.85,29.76c0-0.4,0.11-0.69,0.32-0.88c0.21-0.19,0.51-0.29,0.9-0.29c0.24,0,0.46,0.03,0.66,0.1
				c0.2,0.07,0.33,0.11,0.4,0.14v15.97h-2.28V29.76z"/>
		</g>
	</g>
	<linearGradient id="SVGID_8_" gradientUnits="userSpaceOnUse" x1="59.0415" y1="62.724" x2="59.0415" y2="26.887">
		<stop  offset="1.819156e-03" style="stop-color:#29A07C"/>
		<stop  offset="1" style="stop-color:#BAD532"/>
	</linearGradient>
	<path class="st7" d="M59.04,26.73c-9.87,0-17.87,8-17.87,17.87c0,9.87,8,17.87,17.87,17.87c9.87,0,17.87-8,17.87-17.87
		C76.91,34.73,68.91,26.73,59.04,26.73z M65.29,50.95l-4.58-2.22l-1.75,10.13L57.3,48.7l-4.61,2.14l2.22-4.58l-6.56-1.75l6.59-1.66
		l-2.14-4.61l4.58,2.22l1.75-10.13l1.66,10.16l4.61-2.14l-2.22,4.58l6.56,1.75l-6.59,1.66L65.29,50.95z"/>
</g>
</svg>
